<?xml version="1.0" encoding="UTF-8" standalone="no"?>
<!DOCTYPE svg PUBLIC "-//W3C//DTD SVG 1.1//EN" "http://www.w3.org/Graphics/SVG/1.1/DTD/svg11.dtd">
<svg width="100%" height="100%" viewBox="0 0 113 33" version="1.1" xmlns="http://www.w3.org/2000/svg" xmlns:xlink="http://www.w3.org/1999/xlink" xml:space="preserve" xmlns:serif="http://www.serif.com/" style="fill-rule:evenodd;clip-rule:evenodd;">
    <g transform="matrix(0.975835,0,0,0.975835,0.84545,0.184275)">
        <path d="M12.152,11.484C12.102,11.847 12.066,12.227 12.044,12.624C12.031,12.684 12.025,12.746 12.025,12.809L12.025,21.372C8.64,21.796 7.062,23.906 6.573,25.594C5.396,25.36 3.631,25.279 1.858,26.636C0.88,27.385 0.383,28.398 0.159,29.379C-0.153,30.748 0.081,32.035 0.129,32.268C0.216,32.694 0.6,33 1.045,33L25.038,33C25.507,33 25.903,32.661 25.965,32.208C25.965,32.208 26.38,29.021 24.368,26.841C24.354,26.826 24.34,26.812 24.325,26.798C22.676,25.232 20.772,25.425 19.644,25.75C18.953,24.298 17.237,21.614 13.893,21.322L13.893,13.98C16.611,13.851 18.524,13.141 19.791,11.878C21.2,10.472 21.855,8.334 21.794,5.329C21.784,4.828 21.362,4.43 20.849,4.436C18.167,4.467 16.03,5.105 14.526,6.471C14.215,6.754 13.929,7.07 13.67,7.42C13.293,5.22 12.484,3.574 11.248,2.396C9.472,0.703 6.766,-0.069 2.969,0.005C2.455,0.015 2.047,0.426 2.053,0.927C2.093,4.149 2.889,6.72 4.615,8.527C6.22,10.206 8.651,11.257 12.152,11.484ZM12.75,23.135C9.496,23.35 8.267,25.49 8.267,26.724C8.267,27.008 8.132,27.276 7.9,27.448C7.669,27.621 7.368,27.678 7.087,27.603C6.427,27.428 4.718,26.763 3.012,28.069C2.244,28.657 1.985,29.523 1.901,30.263C1.863,30.599 1.861,30.914 1.875,31.178L24.14,31.178C24.112,30.365 23.906,29.082 22.999,28.082C21.469,26.657 19.587,27.717 19.587,27.717C19.339,27.855 19.038,27.875 18.773,27.771C18.507,27.666 18.305,27.449 18.226,27.18C18.226,27.18 17.062,23.118 13.29,23.118C13.271,23.118 13.253,23.118 13.234,23.118C13.147,23.144 13.055,23.158 12.959,23.158C12.887,23.158 12.817,23.15 12.75,23.135ZM19.92,6.298C19.853,8.211 19.423,9.638 18.454,10.605C17.481,11.575 16.002,12.046 13.953,12.155C14.146,10.172 14.759,8.75 15.8,7.804C16.817,6.88 18.215,6.43 19.92,6.298ZM3.956,1.826C6.634,1.883 8.614,2.433 9.942,3.699C11.275,4.969 11.912,6.92 12.028,9.649C9.251,9.434 7.28,8.643 5.982,7.285C4.707,5.95 4.103,4.098 3.956,1.826Z"/>
    </g>
    <g transform="matrix(0.975835,0,0,0.975835,0.84545,0.184275)">
        <path d="M52.712,7.008L53.021,6.308L52.336,5.968C52.142,5.871 51.788,5.739 51.329,5.58C50.85,5.405 50.272,5.235 49.603,5.069C48.914,4.874 48.147,4.706 47.305,4.563C46.457,4.414 45.586,4.34 44.693,4.34C43.227,4.34 41.902,4.55 40.733,4.988L40.733,4.988L40.728,4.99C39.609,5.418 38.645,5.995 37.853,6.729C37.066,7.457 36.467,8.298 36.067,9.252C35.674,10.186 35.474,11.145 35.474,12.123C35.474,13.159 35.67,14.099 36.095,14.914L36.103,14.929L36.111,14.943C36.534,15.677 37.075,16.33 37.728,16.901L37.741,16.912L37.754,16.923C38.42,17.456 39.16,17.911 39.969,18.287L39.969,18.287L39.978,18.291C40.765,18.646 41.563,18.988 42.374,19.32L42.383,19.323L42.393,19.327C43.19,19.629 43.963,19.931 44.712,20.233L44.726,20.239L44.74,20.244C45.473,20.508 46.102,20.811 46.634,21.149L46.65,21.159L46.666,21.168C47.196,21.472 47.588,21.82 47.864,22.204L47.877,22.222L47.891,22.239C48.139,22.547 48.279,22.936 48.279,23.456C48.279,24.02 48.109,24.435 47.795,24.762L47.788,24.769L47.781,24.777C47.409,25.184 46.955,25.52 46.411,25.782C45.841,26.032 45.237,26.21 44.598,26.316L44.593,26.317C43.935,26.429 43.406,26.481 42.995,26.481C42.142,26.481 41.167,26.332 40.065,26.02C38.965,25.708 37.976,25.299 37.094,24.796L36.366,24.381L35.985,25.128L34.287,28.461L33.947,29.129L34.591,29.512C34.962,29.733 35.4,29.974 35.905,30.236L35.911,30.24L35.918,30.243C36.471,30.517 37.091,30.775 37.775,31.017L37.791,31.023L37.807,31.028C38.529,31.25 39.318,31.433 40.172,31.578L40.176,31.579C41.076,31.728 42.064,31.8 43.136,31.8C44.817,31.8 46.311,31.619 47.604,31.242C48.908,30.869 50.024,30.324 50.925,29.588C51.839,28.862 52.534,27.993 52.99,26.982C53.468,25.954 53.7,24.821 53.7,23.597C53.7,22.034 53.357,20.68 52.604,19.599C51.908,18.577 51.041,17.73 50.008,17.065C49.009,16.42 47.926,15.902 46.76,15.508C45.665,15.115 44.652,14.734 43.722,14.365C42.828,13.988 42.102,13.586 41.531,13.168C41.093,12.828 40.894,12.418 40.894,11.877C40.894,11.243 41.167,10.702 41.856,10.221C42.579,9.732 43.595,9.449 44.976,9.449C45.784,9.449 46.633,9.547 47.526,9.746L47.526,9.746L47.53,9.747C48.46,9.949 49.393,10.22 50.328,10.559L51.03,10.814L51.332,10.13L52.712,7.008ZM58.755,8.292L58.755,8.292L58.749,8.297C57.498,9.563 56.511,11.039 55.789,12.717C55.061,14.387 54.698,16.157 54.698,18.017C54.698,19.923 55.06,21.717 55.79,23.39C56.513,25.046 57.499,26.509 58.749,27.773L58.76,27.784C60.035,29.024 61.509,30.002 63.177,30.718C64.862,31.441 66.668,31.8 68.587,31.8C70.482,31.8 72.275,31.441 73.959,30.718C75.651,30.002 77.128,29.023 78.383,27.779C79.657,26.515 80.657,25.052 81.381,23.395C82.136,21.72 82.511,19.925 82.511,18.017C82.511,16.154 82.135,14.383 81.382,12.713C80.659,11.034 79.66,9.559 78.386,8.294C77.132,7.027 75.656,6.035 73.963,5.319C72.279,4.572 70.484,4.2 68.587,4.2C66.666,4.2 64.858,4.571 63.172,5.319C61.503,6.037 60.029,7.028 58.755,8.292ZM71.912,25.915L71.906,25.918C70.905,26.362 69.825,26.586 68.657,26.586C67.49,26.586 66.396,26.362 65.367,25.915C64.324,25.462 63.417,24.851 62.641,24.081C61.867,23.314 61.253,22.418 60.797,21.388C60.369,20.345 60.154,19.235 60.154,18.053C60.154,16.869 60.37,15.759 60.798,14.714C61.256,13.658 61.86,12.751 62.609,11.985C63.385,11.217 64.29,10.607 65.332,10.155C66.36,9.709 67.454,9.484 68.622,9.484C69.789,9.484 70.869,9.709 71.871,10.153L71.876,10.155C72.92,10.608 73.827,11.219 74.603,11.989C75.373,12.753 75.975,13.657 76.408,14.708L76.411,14.717L76.415,14.726C76.864,15.743 77.09,16.837 77.09,18.017C77.09,19.224 76.863,20.343 76.413,21.384L76.41,21.392C75.978,22.42 75.376,23.314 74.603,24.081L74.595,24.089C73.845,24.854 72.953,25.463 71.912,25.915ZM90.873,4.481L85.417,4.481L85.417,31.519L90.873,31.519L90.873,4.481ZM95.574,4.481L95.574,31.519L113.8,31.519L113.8,26.27L101.065,26.27L101.065,4.481L95.574,4.481Z" style="fill:none;fill-rule:nonzero;stroke:rgb(38,140,128);stroke-width:1.6px;"/>
    </g>
    <g transform="matrix(0.975835,0,0,0.975835,0.84545,0.184275)">
        <path d="M52.712,7.008L53.021,6.308L52.336,5.968C52.142,5.871 51.788,5.739 51.329,5.58C50.85,5.405 50.272,5.235 49.603,5.069C48.914,4.874 48.147,4.706 47.305,4.563C46.457,4.414 45.586,4.34 44.693,4.34C43.227,4.34 41.902,4.55 40.733,4.988L40.733,4.988L40.728,4.99C39.609,5.418 38.645,5.995 37.853,6.729C37.066,7.457 36.467,8.298 36.067,9.252C35.674,10.186 35.474,11.145 35.474,12.123C35.474,13.159 35.67,14.099 36.095,14.914L36.103,14.929L36.111,14.943C36.534,15.677 37.075,16.33 37.728,16.901L37.741,16.912L37.754,16.923C38.42,17.456 39.16,17.911 39.969,18.287L39.969,18.287L39.978,18.291C40.765,18.646 41.563,18.988 42.374,19.32L42.383,19.323L42.393,19.327C43.19,19.629 43.963,19.931 44.712,20.233L44.726,20.239L44.74,20.244C45.473,20.508 46.102,20.811 46.634,21.149L46.65,21.159L46.666,21.168C47.196,21.472 47.588,21.82 47.864,22.204L47.877,22.222L47.891,22.239C48.139,22.547 48.279,22.936 48.279,23.456C48.279,24.02 48.109,24.435 47.795,24.762L47.788,24.769L47.781,24.777C47.409,25.184 46.955,25.52 46.411,25.782C45.841,26.032 45.237,26.21 44.598,26.316L44.593,26.317C43.935,26.429 43.406,26.481 42.995,26.481C42.142,26.481 41.167,26.332 40.065,26.02C38.965,25.708 37.976,25.299 37.094,24.796L36.366,24.381L35.985,25.128L34.287,28.461L33.947,29.129L34.591,29.512C34.962,29.733 35.4,29.974 35.905,30.236L35.911,30.24L35.918,30.243C36.471,30.517 37.091,30.775 37.775,31.017L37.791,31.023L37.807,31.028C38.529,31.25 39.318,31.433 40.172,31.578L40.176,31.579C41.076,31.728 42.064,31.8 43.136,31.8C44.817,31.8 46.311,31.619 47.604,31.242C48.908,30.869 50.024,30.324 50.925,29.588C51.839,28.862 52.534,27.993 52.99,26.982C53.468,25.954 53.7,24.821 53.7,23.597C53.7,22.034 53.357,20.68 52.604,19.599C51.908,18.577 51.041,17.73 50.008,17.065C49.009,16.42 47.926,15.902 46.76,15.508C45.665,15.115 44.652,14.734 43.722,14.365C42.828,13.988 42.102,13.586 41.531,13.168C41.093,12.828 40.894,12.418 40.894,11.877C40.894,11.243 41.167,10.702 41.856,10.221C42.579,9.732 43.595,9.449 44.976,9.449C45.784,9.449 46.633,9.547 47.526,9.746L47.526,9.746L47.53,9.747C48.46,9.949 49.393,10.22 50.328,10.559L51.03,10.814L51.332,10.13L52.712,7.008ZM58.755,8.292L58.755,8.292L58.749,8.297C57.498,9.563 56.511,11.039 55.789,12.717C55.061,14.387 54.698,16.157 54.698,18.017C54.698,19.923 55.06,21.717 55.79,23.39C56.513,25.046 57.499,26.509 58.749,27.773L58.76,27.784C60.035,29.024 61.509,30.002 63.177,30.718C64.862,31.441 66.668,31.8 68.587,31.8C70.482,31.8 72.275,31.441 73.959,30.718C75.651,30.002 77.128,29.023 78.383,27.779C79.657,26.515 80.657,25.052 81.381,23.395C82.136,21.72 82.511,19.925 82.511,18.017C82.511,16.154 82.135,14.383 81.382,12.713C80.659,11.034 79.66,9.559 78.386,8.294C77.132,7.027 75.656,6.035 73.963,5.319C72.279,4.572 70.484,4.2 68.587,4.2C66.666,4.2 64.858,4.571 63.172,5.319C61.503,6.037 60.029,7.028 58.755,8.292ZM71.912,25.915L71.906,25.918C70.905,26.362 69.825,26.586 68.657,26.586C67.49,26.586 66.396,26.362 65.367,25.915C64.324,25.462 63.417,24.851 62.641,24.081C61.867,23.314 61.253,22.418 60.797,21.388C60.369,20.345 60.154,19.235 60.154,18.053C60.154,16.869 60.37,15.759 60.798,14.714C61.256,13.658 61.86,12.751 62.609,11.985C63.385,11.217 64.29,10.607 65.332,10.155C66.36,9.709 67.454,9.484 68.622,9.484C69.789,9.484 70.869,9.709 71.871,10.153L71.876,10.155C72.92,10.608 73.827,11.219 74.603,11.989C75.373,12.753 75.975,13.657 76.408,14.708L76.411,14.717L76.415,14.726C76.864,15.743 77.09,16.837 77.09,18.017C77.09,19.224 76.863,20.343 76.413,21.384L76.41,21.392C75.978,22.42 75.376,23.314 74.603,24.081L74.595,24.089C73.845,24.854 72.953,25.463 71.912,25.915ZM90.873,4.481L85.417,4.481L85.417,31.519L90.873,31.519L90.873,4.481ZM95.574,4.481L95.574,31.519L113.8,31.519L113.8,26.27L101.065,26.27L101.065,4.481L95.574,4.481Z" style="fill:none;fill-rule:nonzero;stroke:url(#_Linear1);stroke-width:1.6px;"/>
    </g>
    <defs>
        <linearGradient id="_Linear1" x1="0" y1="0" x2="1" y2="0" gradientUnits="userSpaceOnUse" gradientTransform="matrix(25.5071,0,0,25.5071,61.9858,18)"><stop offset="0" style="stop-color:rgb(251,76,32);stop-opacity:1"/><stop offset="1" style="stop-color:white;stop-opacity:0"/></linearGradient>
    </defs>
</svg>
